HIERARCHY
ROOT Hips
{
    OFFSET 0.000000 0.000000 0.000000
    CHANNELS 6 Xposition Yposition Zposition Zrotation Xrotation Yrotation
    JOINT Spine
    {
        OFFSET -0.000000 7.236184 0.000000
        CHANNELS 3 Zrotation Xrotation Yrotation
        JOINT Spine1
        {
            OFFSET -0.000000 20.420147 0.000000
            CHANNELS 3 Zrotation Xrotation Yrotation
            JOINT Neck
            {
                OFFSET -0.000000 20.336288 1.848754
                CHANNELS 3 Zrotation Xrotation Yrotation
                JOINT Head
                {
                    OFFSET -0.000000 12.354461 -1.764923
                    CHANNELS 3 Zrotation Xrotation Yrotation
                    End Site
                    {
                        OFFSET -0.000000 22.061537 0.000000
                    }
                }
            }
            JOINT LeftShoulder
            {
                OFFSET 3.573296 18.396038 -0.314103
                CHANNELS 3 Zrotation Xrotation Yrotation
                JOINT LeftArm
                {
                    OFFSET 10.880760 0.000000 0.000000
                    CHANNELS 3 Zrotation Xrotation Yrotation
                    JOINT LeftForeArm
                    {
                        OFFSET 27.185530 0.000000 0.000000
                        CHANNELS 3 Zrotation Xrotation Yrotation
                        JOINT LeftHand
                        {
                            OFFSET 27.825975 0.000000 0.000000
                            CHANNELS 3 Zrotation Xrotation Yrotation
                            End Site
                            {
                                OFFSET 13.236923 0.000000 0.000000
                            }
                        }
                    }
                }
            }
            JOINT RightShoulder
            {
                OFFSET -3.474926 18.396038 -0.314103
                CHANNELS 3 Zrotation Xrotation Yrotation
                JOINT RightArm
                {
                    OFFSET -10.880760 0.000000 0.000000
                    CHANNELS 3 Zrotation Xrotation Yrotation
                    JOINT RightForeArm
                    {
                        OFFSET -27.185530 0.000000 0.000000
                        CHANNELS 3 Zrotation Xrotation Yrotation
                        JOINT RightHand
                        {
                            OFFSET -27.825975 0.000000 0.000000
                            CHANNELS 3 Zrotation Xrotation Yrotation
                            End Site
                            {
                                OFFSET -13.236923 0.000000 0.000000
                            }
                        }
                    }
                }
            }
        }
    }
    JOINT LeftUpLeg
    {
        OFFSET 8.824615 0.000000 0.000000
        CHANNELS 3 Zrotation Xrotation Yrotation
        JOINT LeftLeg
        {
            OFFSET -0.000000 -35.111282 0.000000
            CHANNELS 3 Zrotation Xrotation Yrotation
            JOINT LeftFoot
            {
                OFFSET -0.000000 -42.324711 0.000000
                CHANNELS 3 Zrotation Xrotation Yrotation
                JOINT LeftToeBase
                {
                    OFFSET -0.000000 -5.735999 13.236923
                    CHANNELS 3 Zrotation Xrotation Yrotation
                    End Site
                    {
                        OFFSET -0.000000 0.000000 3.529846
                    }
                }
            }
        }
    }
    JOINT RightUpLeg
    {
        OFFSET -8.824615 0.000000 0.000000
        CHANNELS 3 Zrotation Xrotation Yrotation
        JOINT RightLeg
        {
            OFFSET -0.000000 -35.111282 0.000000
            CHANNELS 3 Zrotation Xrotation Yrotation
            JOINT RightFoot
            {
                OFFSET -0.000000 -42.324711 0.000000
                CHANNELS 3 Zrotation Xrotation Yrotation
                JOINT RightToeBase
                {
                    OFFSET -0.000000 -5.735999 13.236923
                    CHANNELS 3 Zrotation Xrotation Yrotation
                    End Site
                    {
                        OFFSET -0.000000 0.000000 3.529846
                    }
                }
            }
        }
    }
}
MOTION
Frames:    9
Frame Time:    0.008333
14.172353    81.524658    107.656609    -1.674422    -7.533792    175.708542    -4.891566    -15.191753    -0.507731    -3.635965    9.963656    0.462038    4.007287    10.306333    -2.391432    1.675957    -3.237393    -2.425820    -0.749343    16.867874    -4.312790    -39.256950    41.526794    -37.634136    -1.493525    -2.586386    -14.096245    18.199690    -2.437098    2.085624    9.523471    20.060474    -6.535903    40.389233    44.713638    39.876415    -3.452374    -10.084739    18.754938    -18.177519    -8.827924    -4.398190    11.919923    -13.740175    2.774254    -1.777358    20.204023    10.207054    -14.438560    -7.938475    -15.941222    0.461084    -1.234881    -0.512245    -15.973678    -13.323441    1.765780    1.948766    17.018198    1.997905    9.575275    -5.786195    -9.007331    0.027701    -1.978186    -0.030042
14.785326    81.485695    107.698418    -1.529594    -7.533812    175.855179    -4.899755    -15.164691    -0.517424    -3.717508    10.004132    0.460905    3.979638    10.296467    -2.360823    1.566221    -3.302005    -2.410596    -0.778943    16.846128    -4.367940    -39.136883    41.343430    -37.912025    -1.469720    -2.577500    -13.936640    18.280334    -2.418907    2.102727    9.538489    20.117699    -6.430939    39.879623    44.930782    40.304813    -3.396209    -10.041500    18.837799    -17.986734    -8.802661    -4.372513    12.432488    -13.970629    2.716502    -1.691942    20.533712    10.307738    -14.632996    -7.603318    -16.027653    0.407177    -1.433307    -0.452523    -15.451045    -13.212797    1.843424    2.000075    16.991894    2.070828    9.366922    -6.308923    -9.148961    0.020051    -1.706942    -0.021737
15.401456    81.453232    107.749031    -1.362248    -7.537400    176.007751    -4.897357    -15.129854    -0.526120    -3.778552    10.045246    0.456759    3.955512    10.289159    -2.328315    1.452963    -3.368608    -2.394212    -0.806089    16.827324    -4.422712    -39.047981    41.135052    -38.193253    -1.443389    -2.568222    -13.762789    18.372984    -2.399630    2.120195    9.550287    20.175289    -6.313384    39.326534    45.140537    40.758049    -3.336042    -9.994407    18.910347    -17.785320    -8.776270    -4.337935    12.965773    -14.231007    2.654379    -1.604029    20.891787    10.425994    -14.789272    -7.235339    -16.117607    0.341625    -1.663429    -0.379833    -14.905807    -13.136737    1.898725    2.064085    17.005503    2.177921    9.109139    -6.786999    -9.335346    -0.004488    -1.460027    0.004865
16.022078    81.427505    107.808365    -1.173550    -7.544324    176.167297    -4.886682    -15.087193    -0.535659    -3.819026    10.086281    0.449657    3.934798    10.285160    -2.293869    1.338106    -3.436061    -2.376272    -0.830938    16.810678    -4.477676    -38.991676    40.904442    -38.476315    -1.413913    -2.560637    -13.577976    18.479013    -2.381174    2.138634    9.556665    20.228327    -6.184895    38.735069    45.346230    41.232674    -3.271858    -9.941596    18.971552    -17.580843    -8.746237    -4.296641    13.519783    -14.524189    2.588028    -1.516617    21.282528    10.564793    -14.904149    -6.834355    -16.210011    0.265708    -1.923195    -0.295569    -14.340823    -13.092144    1.938245    2.143251    17.054199    2.314650    8.811786    -7.220503    -9.564532    -0.045222    -1.239395    0.048996
16.644045    81.408867    107.875702    -0.966632    -7.554428    176.334076    -4.870471    -15.037536    -0.545848    -3.838757    10.126710    0.437781    3.917943    10.284584    -2.257938    1.224168    -3.501375    -2.356838    -0.853038    16.796341    -4.532858    -38.967709    40.657055    -38.759724    -1.380524    -2.556978    -13.387342    18.599209    -2.365567    2.159019    9.555996    20.272173    -6.049639    38.112869    45.550694    41.724060    -3.204895    -9.882637    19.019960    -17.381563    -8.711130    -4.251825    14.089514    -14.851274    2.516445    -1.433960    21.707687    10.728918    -14.974282    -6.403613    -16.303507    0.182588    -2.206385    -0.203215    -13.763324    -13.074667    1.966201    2.239197    17.130480    2.474669    8.484929    -7.608311    -9.830966    -0.098768    -1.046479    0.106981
17.265320    81.397263    107.950226    -0.745107    -7.567352    176.508972    -4.851554    -14.981485    -0.558605    -3.839162    10.165293    0.421489    3.904791    10.289420    -2.221166    1.114584    -3.563759    -2.336021    -0.871742    16.783669    -4.588466    -38.975651    40.398998    -39.041393    -1.342456    -2.558523    -13.196363    18.733711    -2.354017    2.181967    9.547665    20.303522    -5.911788    37.466354    45.756714    42.228199    -3.136556    -9.817952    19.055414    -17.192633    -8.670365    -4.207016    14.669720    -15.213570    2.437140    -1.360663    22.169472    10.924905    -14.997028    -5.946489    -16.397245    0.095618    -2.506888    -0.106481    -13.179617    -13.077686    1.984134    2.352159    17.224184    2.652725    8.136389    -7.951837    -10.128489    -0.160503    -0.880652    0.173809
17.900450    81.392258    108.033165    -0.507070    -7.583417    176.697983    -4.832320    -14.918084    -0.575419    -3.822119    10.201429    0.400189    3.895062    10.300151    -2.183640    1.010034    -3.621786    -2.313628    -0.887179    16.771833    -4.645687    -39.013603    40.130127    -39.328255    -1.297906    -2.566153    -13.005343    18.886435    -2.346895    2.208590    9.531459    20.320866    -5.771848    36.785381    45.970444    42.753880    -3.065884    -9.745469    19.079330    -17.013617    -8.621757    -4.164010    15.269597    -15.623210    2.344630    -1.299741    22.683115    11.166494    -14.968487    -5.454231    -16.493767    0.005284    -2.825755    -0.005890    -12.579980    -13.094311    1.990914    2.483317    17.326654    2.849901    7.763446    -8.261431    -10.458403    -0.228356    -0.736194    0.247236
18.524069    81.393646    108.120636    -0.265944    -7.601879    176.895691    -4.816636    -14.850502    -0.595341    -3.790344    10.232797    0.373328    3.888561    10.317027    -2.148014    0.918886    -3.670764    -2.290988    -0.897961    16.760561    -4.702016    -39.076916    39.867783    -39.610165    -1.248032    -2.579674    -12.826944    19.052311    -2.344426    2.238672    9.507306    20.322632    -5.638453    36.103798    46.183369    43.276516    -2.996900    -9.667521    19.091999    -16.853779    -8.566092    -4.126355    15.859401    -16.067593    2.238713    -1.258533    23.232756    11.456130    -14.883901    -4.948402    -16.591806    -0.082720    -3.145639    0.092227    -11.992021    -13.116437    1.981995    2.623777    17.422562    3.055649    7.386399    -8.526687    -10.799391    -0.296713    -0.616314    0.321192
19.144047    81.400391    108.212769    -0.023492    -7.622668    177.105820    -4.806843    -14.778808    -0.623809    -3.748643    10.258765    0.346140    3.884892    10.340914    -2.115116    0.843062    -3.710159    -2.268597    -0.904352    16.748728    -4.758122    -39.158916    39.616806    -39.892647    -1.191293    -2.598899    -12.663996    19.233091    -2.346091    2.273222    9.475617    20.309137    -5.511457    35.422359    46.397129    43.796276    -2.930522    -9.583194    19.095907    -16.711035    -8.502368    -4.093896    16.439516    -16.553576    2.115144    -1.239811    23.827278    11.805830    -14.739759    -4.426890    -16.695084    -0.167970    -3.465950    0.187389    -11.411444    -13.136853    1.953394    2.769388    17.502552    3.268144    7.006380    -8.755066    -11.144735    -0.364053    -0.515972    0.394032
